<svg width="20" height="21" viewBox="0 0 20 21" fill="none" xmlns="http://www.w3.org/2000/svg">
<path d="M7.91669 10.0964C9.75502 10.0964 11.25 8.60135 11.25 6.76302C11.25 4.92469 9.75502 3.42969 7.91669 3.42969C6.07835 3.42969 4.58335 4.92469 4.58335 6.76302C4.58335 8.60135 6.07835 10.0964 7.91669 10.0964ZM9.16669 10.9297H6.66669C3.90919 10.9297 1.66669 13.1722 1.66669 15.9297V16.763H14.1667V15.9297C14.1667 13.1722 11.9242 10.9297 9.16669 10.9297Z" fill="black"/>
<path d="M13.8366 9.30306C14.3442 8.43813 14.5634 7.43415 14.4625 6.43639C14.3133 4.94972 13.4833 3.63556 12.1266 2.73639L11.2058 4.12472C12.1383 4.74306 12.7058 5.62389 12.8041 6.60306C12.8495 7.05814 12.7928 7.5176 12.6383 7.94804C12.4838 8.37848 12.2353 8.76906 11.9108 9.09139L10.9175 10.0847L12.2658 10.4806C15.7925 11.5139 15.8333 15.0606 15.8333 15.0964H17.5C17.5 13.6056 16.7033 10.6922 13.8366 9.30306Z" fill="black"/>
</svg>
