<svg width="20" height="21" viewBox="0 0 20 21" fill="none" xmlns="http://www.w3.org/2000/svg">
<path d="M19.6688 2.82986L17.1594 0.320386C16.9437 0.114729 16.6571 0 16.3591 0C16.061 0 15.7744 0.114729 15.5587 0.320386L13.3273 2.55856H1.35647C0.996713 2.55856 0.651689 2.70148 0.397301 2.95587C0.142914 3.21025 0 3.55528 0 3.91504V18.8362C0 19.196 0.142914 19.541 0.397301 19.7954C0.651689 20.0498 0.996713 20.1927 1.35647 20.1927H16.2777C16.6374 20.1927 16.9824 20.0498 17.2368 19.7954C17.4912 19.541 17.6341 19.196 17.6341 18.8362V6.4652L19.6688 4.4305C19.8809 4.21813 20 3.93029 20 3.63018C20 3.33007 19.8809 3.04222 19.6688 2.82986ZM10.0582 12.142L7.21643 12.7728L7.89467 9.95812L14.3718 3.4674L16.5625 5.6581L10.0582 12.142ZM17.295 4.88491L15.1043 2.69421L16.3591 1.43948L18.5498 3.63018L17.295 4.88491Z" fill="black"/>
</svg>
